<svg id="Digital_Marketing" data-name="Digital Marketing" xmlns="http://www.w3.org/2000/svg" viewBox="0 0 470.26 310.58"><defs><style>.cls-1{fill:#27c7cd;}.cls-1,.cls-12,.cls-13,.cls-14,.cls-2,.cls-4,.cls-7{stroke:#1b2c38;stroke-miterlimit:10;}.cls-1,.cls-14,.cls-4,.cls-7{stroke-width:2px;}.cls-13,.cls-14,.cls-2,.cls-5,.cls-7{fill:none;}.cls-12,.cls-3{fill:#f1f2ec;}.cls-4,.cls-6{fill:#fc3e59;}.cls-8{fill:#fff;}.cls-9{fill:#1b2c38;}.cls-10{fill:#ffcb05;}.cls-11{fill:#95d133;}.cls-13{stroke-linecap:round;}.cls-14{stroke-dasharray:4;}.cls-15{fill:#b88028;}.cls-16{fill:#f5ab35;}</style></defs><title>08-subscribe</title><polygon class="cls-1" points="222.77 222.25 212.01 233.02 178.66 199.67 192.65 185.69 222.77 222.25"/><polygon class="cls-2" points="222.77 222.25 212.01 233.02 178.66 199.67 192.65 185.69 222.77 222.25"/><polygon class="cls-3" points="203.94 178.52 265.43 148.16 201.9 84.63 172.09 146.67 203.94 178.52"/><rect class="cls-4" x="144.11" y="232.61" width="51.53" height="44.26" transform="translate(-130.37 120.88) rotate(-45)"/><polygon class="cls-3" points="155.69 220.15 166.72 215.63 135.13 184.04 130.61 195.07 155.69 220.15"/><rect class="cls-3" x="131.16" y="268.69" width="13.96" height="35.23" transform="translate(-161.99 107.68) rotate(-45)"/><line class="cls-2" x1="124.71" y1="205.06" x2="130.74" y2="199.03"/><line class="cls-2" x1="129.78" y1="210.14" x2="135.81" y2="204.11"/><line class="cls-2" x1="134.85" y1="215.21" x2="140.88" y2="209.18"/><line class="cls-2" x1="139.92" y1="220.28" x2="145.95" y2="214.25"/><line class="cls-2" x1="144.99" y1="225.35" x2="151.02" y2="219.32"/><rect class="cls-5" x="144.11" y="232.61" width="51.53" height="44.26" transform="translate(-130.37 120.88) rotate(-45)"/><rect class="cls-6" x="232.04" y="142.74" width="10.53" height="87.39" transform="translate(-62.32 148.55) rotate(-45)"/><rect class="cls-7" x="232.04" y="142.74" width="10.53" height="87.39" transform="translate(-62.32 148.55) rotate(-45)"/><path class="cls-8" d="M228.33,302.17a5.64,5.64,0,0,0-8,0l4.18-4.18a5.64,5.64,0,0,0-8-8l4.18-4.18a5.63,5.63,0,1,0-8-8l-4.18,4.18a5.64,5.64,0,0,0-8-8l-8.24,8.24-5.61-5.62a3.81,3.81,0,0,0-5.39,0l-17.74,17.74a5.15,5.15,0,0,0-1.19,5.43l1.76,4.78a5.18,5.18,0,0,1-1.2,5.44l-7.68,7.68,26.51,26.5,8.67-8.66a4.57,4.57,0,0,1,3.26-1.33l8,.09a5.44,5.44,0,0,0,3.87-1.58l22.65-22.66A5.64,5.64,0,0,0,228.33,302.17Z" transform="translate(0 -73.85)"/><path class="cls-7" d="M228.33,302.17a5.64,5.64,0,0,0-8,0l4.18-4.18a5.64,5.64,0,0,0-8-8l4.18-4.18a5.63,5.63,0,1,0-8-8l-4.18,4.18a5.64,5.64,0,0,0-8-8l-8.24,8.24-5.61-5.62a3.81,3.81,0,0,0-5.39,0l-17.74,17.74a5.15,5.15,0,0,0-1.19,5.43l1.76,4.78a5.18,5.18,0,0,1-1.2,5.44l-7.68,7.68,26.51,26.5,8.67-8.66a4.57,4.57,0,0,1,3.26-1.33l8,.09a5.44,5.44,0,0,0,3.87-1.58l22.65-22.66A5.64,5.64,0,0,0,228.33,302.17Z" transform="translate(0 -73.85)"/><polygon class="cls-9" points="192.68 267.5 149.6 310.58 80.83 310.58 158.39 233.21 192.68 267.5"/><path class="cls-10" d="M252.15,178.53l3.42-18.5A35.19,35.19,0,1,1,269,175.44Z" transform="translate(0 -73.85)"/><path class="cls-2" d="M322.67,145.73A35,35,0,0,1,269,175.44l-16.83,3.09" transform="translate(0 -73.85)"/><ellipse class="cls-3" cx="287.41" cy="71.88" rx="25.46" ry="24.87"/><path class="cls-9" d="M285.91,160.54v-2.63a16.43,16.43,0,0,1-8.42-4.14l3.35-4.06a14.63,14.63,0,0,0,5.07,3.13v-5.37a12.77,12.77,0,0,1-5.54-2.6,6.16,6.16,0,0,1-1.76-4.72,6.84,6.84,0,0,1,2-5.07,8.76,8.76,0,0,1,5.29-2.39v-1.77h3.82v1.84a16.54,16.54,0,0,1,7.16,3L293.94,140a13.82,13.82,0,0,0-4.21-2.16V143a13.53,13.53,0,0,1,5.74,2.7,6.19,6.19,0,0,1,1.85,4.79,6.84,6.84,0,0,1-2.07,5.11,9.14,9.14,0,0,1-5.52,2.41v2.52Zm0-22.85a2,2,0,0,0-1.54,2,2.37,2.37,0,0,0,1.54,2.19Zm5.65,13.09a2,2,0,0,0-.39-1.26,3.72,3.72,0,0,0-1.44-.93V153A2.25,2.25,0,0,0,291.56,150.78Z" transform="translate(0 -73.85)"/><polygon class="cls-11" points="203.42 24.52 149.65 24.52 156.88 48.8 199.28 48.8 203.42 24.52"/><polyline class="cls-2" points="135.09 21.91 148.45 22.92 159.9 58.73 196.81 58.73"/><line class="cls-2" x1="154.32" y1="29.76" x2="200.87" y2="29.76"/><line class="cls-2" x1="156.26" y1="35.39" x2="199.5" y2="35.39"/><line class="cls-2" x1="158.15" y1="41.02" x2="198.55" y2="41.02"/><line class="cls-2" x1="156.88" y1="48.8" x2="199.29" y2="48.8"/><path class="cls-10" d="M172.68,132.58a4.44,4.44,0,1,1-4.44-4.44A4.43,4.43,0,0,1,172.68,132.58Z" transform="translate(0 -73.85)"/><path class="cls-9" d="M169.93,132.58a1.69,1.69,0,1,1-1.69-1.69A1.69,1.69,0,0,1,169.93,132.58Z" transform="translate(0 -73.85)"/><path class="cls-2" d="M172.68,132.58a4.44,4.44,0,1,1-4.44-4.44A4.43,4.43,0,0,1,172.68,132.58Z" transform="translate(0 -73.85)"/><path class="cls-10" d="M193.92,132.58a4.44,4.44,0,1,1-4.44-4.44A4.43,4.43,0,0,1,193.92,132.58Z" transform="translate(0 -73.85)"/><path class="cls-9" d="M191.17,132.58a1.69,1.69,0,1,1-1.69-1.69A1.69,1.69,0,0,1,191.17,132.58Z" transform="translate(0 -73.85)"/><path class="cls-2" d="M193.92,132.58a4.44,4.44,0,1,1-4.44-4.44A4.43,4.43,0,0,1,193.92,132.58Z" transform="translate(0 -73.85)"/><rect class="cls-12" x="131.74" y="93.97" width="13.43" height="3.9" transform="translate(7.62 -84.01) rotate(4.32)"/><polygon class="cls-6" points="141.03 132.8 138.02 140.2 141.03 147.61 117.89 147.61 117.89 132.8 141.03 132.8"/><polygon class="cls-13" points="141.03 132.8 138.02 140.2 141.03 147.61 117.89 147.61 117.89 132.8 141.03 132.8"/><polygon class="cls-6" points="65.4 132.8 68.41 140.2 65.4 147.61 88.53 147.61 88.53 132.8 65.4 132.8"/><polygon class="cls-13" points="65.4 132.8 68.41 140.2 65.4 147.61 88.53 147.61 88.53 132.8 65.4 132.8"/><path class="cls-10" d="M124.66,216.79l-2.78,4.13a4.85,4.85,0,0,0-.75,1.8l-.95,4.88a4.89,4.89,0,0,1-3.87,3.87l-4.89,1a4.7,4.7,0,0,0-1.79.74L105.5,236a4.93,4.93,0,0,1-5.48,0l-4.12-2.78a4.81,4.81,0,0,0-1.8-.74l-4.89-1a4.9,4.9,0,0,1-3.87-3.87l-1-4.88a4.85,4.85,0,0,0-.75-1.8l-2.77-4.13a4.89,4.89,0,0,1,0-5.48l2.77-4.12a5,5,0,0,0,.75-1.8l1-4.88a4.92,4.92,0,0,1,3.88-3.88l4.88-.95a5.16,5.16,0,0,0,1.8-.74l4.12-2.78a4.89,4.89,0,0,1,5.48,0l4.13,2.78a5,5,0,0,0,1.79.74l4.89.95a4.91,4.91,0,0,1,3.87,3.88l.95,4.88a5,5,0,0,0,.75,1.8l2.78,4.12A4.93,4.93,0,0,1,124.66,216.79Z" transform="translate(0 -73.85)"/><path class="cls-3" d="M118.27,214.05a15.51,15.51,0,1,1-15.51-15.5A15.51,15.51,0,0,1,118.27,214.05Z" transform="translate(0 -73.85)"/><path class="cls-9" d="M109.46,224.64l-6.37-3.24a.47.47,0,0,0-.4,0l-6.28,3.41a.42.42,0,0,1-.62-.44l1.11-7.06a.39.39,0,0,0-.12-.37L91.59,212a.43.43,0,0,1,.23-.73l7.06-1.12a.42.42,0,0,0,.32-.24l3.08-6.45a.43.43,0,0,1,.76,0l3.24,6.37a.44.44,0,0,0,.33.23l7.08.94a.42.42,0,0,1,.25.72l-5.06,5.05a.41.41,0,0,0-.11.38l1.3,7A.42.42,0,0,1,109.46,224.64Z" transform="translate(0 -73.85)"/><line class="cls-2" x1="102.77" y1="110.52" x2="102.77" y2="114.94"/><line class="cls-2" x1="109.44" y1="111.41" x2="108.3" y2="115.67"/><line class="cls-2" x1="115.66" y1="113.99" x2="113.44" y2="117.81"/><line class="cls-2" x1="120.99" y1="118.1" x2="117.86" y2="121.22"/><line class="cls-2" x1="125.07" y1="123.45" x2="121.23" y2="125.65"/><line class="cls-2" x1="127.62" y1="129.68" x2="123.35" y2="130.81"/><line class="cls-2" x1="78.04" y1="129.19" x2="82.29" y2="130.4"/><line class="cls-2" x1="80.71" y1="123.02" x2="84.5" y2="125.28"/><line class="cls-2" x1="84.9" y1="117.74" x2="87.97" y2="120.92"/><line class="cls-2" x1="90.31" y1="113.74" x2="92.45" y2="117.6"/><line class="cls-2" x1="96.57" y1="111.28" x2="97.64" y2="115.56"/><line class="cls-2" x1="102.77" y1="170.18" x2="102.77" y2="165.76"/><line class="cls-2" x1="109.44" y1="169.3" x2="108.3" y2="165.03"/><line class="cls-2" x1="115.66" y1="166.71" x2="113.44" y2="162.89"/><line class="cls-2" x1="120.99" y1="162.6" x2="117.86" y2="159.49"/><line class="cls-2" x1="125.07" y1="157.25" x2="121.23" y2="155.05"/><line class="cls-2" x1="127.62" y1="151.02" x2="123.35" y2="149.89"/><line class="cls-2" x1="78.04" y1="151.51" x2="82.29" y2="150.3"/><line class="cls-2" x1="80.71" y1="157.69" x2="84.5" y2="155.42"/><line class="cls-2" x1="84.9" y1="162.96" x2="87.97" y2="159.78"/><line class="cls-2" x1="90.31" y1="166.96" x2="92.45" y2="163.1"/><line class="cls-2" x1="96.57" y1="169.42" x2="97.64" y2="165.14"/><polygon class="cls-2" points="257.62 12.66 245.57 19.62 245.57 5.71 257.62 12.66 245.57 19.62 245.57 5.71 257.62 12.66"/><polygon class="cls-2" points="375.26 192.74 363.21 199.7 363.21 185.78 375.26 192.74 363.21 199.7 363.21 185.78 375.26 192.74"/><polygon class="cls-2" points="260.63 4.76 267.38 8.65 267.38 0.87 260.63 4.76 267.38 8.65 267.38 0.87 260.63 4.76"/><polygon class="cls-2" points="161.79 117.19 168.54 121.09 168.54 113.3 161.79 117.19 168.54 121.09 168.54 113.3 161.79 117.19"/><line class="cls-2" x1="278.57" y1="159.25" x2="343.21" y2="159.25"/><line class="cls-2" x1="351.55" y1="159.25" x2="345.97" y2="159.25"/><line class="cls-2" x1="359.82" y1="159.25" x2="354.24" y2="159.25"/><line class="cls-2" x1="265.95" y1="22.07" x2="326.35" y2="22.07"/><line class="cls-2" x1="334.14" y1="22.07" x2="328.92" y2="22.07"/><line class="cls-2" x1="341.87" y1="22.07" x2="336.65" y2="22.07"/><line class="cls-2" x1="185.63" y1="7.43" x2="120.99" y2="7.43"/><line class="cls-2" x1="112.65" y1="7.43" x2="118.23" y2="7.43"/><line class="cls-2" x1="104.38" y1="7.43" x2="109.96" y2="7.43"/><path class="cls-2" d="M313.59,201.06a2.63,2.63,0,1,1-2.63-2.63A2.63,2.63,0,0,1,313.59,201.06Z" transform="translate(0 -73.85)"/><path class="cls-2" d="M108.48,132.58a2.64,2.64,0,1,1-2.63-2.64A2.63,2.63,0,0,1,108.48,132.58Z" transform="translate(0 -73.85)"/><line class="cls-2" x1="113.99" y1="81.98" x2="117.41" y2="81.98"/><line class="cls-2" x1="120.18" y1="81.98" x2="123.59" y2="81.98"/><line class="cls-2" x1="126.36" y1="81.98" x2="129.77" y2="81.98"/><line class="cls-2" x1="132.54" y1="81.98" x2="135.96" y2="81.98"/><line class="cls-2" x1="138.73" y1="81.98" x2="142.14" y2="81.98"/><line class="cls-2" x1="144.91" y1="81.98" x2="148.32" y2="81.98"/><line class="cls-2" x1="151.09" y1="81.98" x2="154.51" y2="81.98"/><line class="cls-2" x1="157.28" y1="81.98" x2="160.69" y2="81.98"/><line class="cls-2" x1="163.46" y1="81.98" x2="166.87" y2="81.98"/><line class="cls-2" x1="169.64" y1="81.98" x2="173.06" y2="81.98"/><path class="cls-14" d="M375.25,201.06a38.31,38.31,0,0,1,0-76.61" transform="translate(0 -73.85)"/><path class="cls-7" d="M375.25,124.45a38.31,38.31,0,1,1,0,76.61" transform="translate(0 -73.85)"/><path class="cls-7" d="M391.93,159.7l-3,0a14.12,14.12,0,0,0-1.81-4.36l2.14-2.15a2,2,0,0,0,0-2.77l-1.6-1.6a2,2,0,0,0-2.77,0l-2.15,2.15a13.8,13.8,0,0,0-4.36-1.82v-3a2,2,0,0,0-2-2h-2.27a2,2,0,0,0-2,2v3a14.15,14.15,0,0,0-4.3,1.77l-2.13-2.15a2,2,0,0,0-2.77,0l-1.61,1.59a2,2,0,0,0,0,2.77l2.13,2.16a14.1,14.1,0,0,0-1.83,4.35h-3a2,2,0,0,0-2,2v2.27a2,2,0,0,0,1.95,2h3a13.84,13.84,0,0,0,1.81,4.37l-2.16,2.15a2,2,0,0,0,0,2.76l1.59,1.61a2,2,0,0,0,2.77,0l2.15-2.13a14.09,14.09,0,0,0,4.37,1.82v3a2,2,0,0,0,1.95,2h2.27a2,2,0,0,0,2-1.95v-3a13.91,13.91,0,0,0,4.37-1.8l2.14,2.15a2,2,0,0,0,2.78,0l1.6-1.6a1.94,1.94,0,0,0,0-2.76l-2.13-2.16a13.9,13.9,0,0,0,1.82-4.36h3a2,2,0,0,0,2-2v-2.27A2,2,0,0,0,391.93,159.7ZM375.26,169a6.21,6.21,0,1,1,6.21-6.22A6.21,6.21,0,0,1,375.26,169Z" transform="translate(0 -73.85)"/><line class="cls-2" x1="333.26" y1="147.06" x2="470.26" y2="147.07"/><line class="cls-2" y1="182.67" x2="104" y2="182.67"/><line class="cls-2" x1="90.24" y1="96.47" x2="144.57" y2="96.47"/><line class="cls-2" x1="353.47" y1="21.91" x2="362.09" y2="21.91"/><line class="cls-2" x1="357.78" y1="26.22" x2="357.78" y2="17.6"/><line class="cls-2" x1="363.75" y1="159.25" x2="372.37" y2="159.25"/><line class="cls-2" x1="368.06" y1="163.56" x2="368.06" y2="154.94"/><line class="cls-2" x1="105.65" y1="203.32" x2="114.27" y2="203.32"/><line class="cls-2" x1="109.96" y1="207.62" x2="109.96" y2="199.01"/><line class="cls-2" x1="73.31" y1="96.47" x2="81.92" y2="96.47"/><line class="cls-2" x1="77.61" y1="100.78" x2="77.61" y2="92.16"/><rect class="cls-15" x="257.15" y="213.82" width="79.3" height="46.44"/><path class="cls-16" d="M338.05,288.57a6.35,6.35,0,0,1-2.42.24H256.22a6.32,6.32,0,0,1-2.41-.24,8.49,8.49,0,0,1,2.09-1.46L293.84,265a4.6,4.6,0,0,1,4.18,0L336,287.11A8.49,8.49,0,0,1,338.05,288.57Z" transform="translate(0 -73.85)"/><rect class="cls-3" x="260.65" y="180.7" width="70.34" height="64.17"/><path class="cls-10" d="M253.81,288.72v44.14c0,1.34.93,1.87,2.08,1.2L293.74,312a1.28,1.28,0,0,0,0-2.42l-37.85-22.06C254.74,286.85,253.81,287.38,253.81,288.72Z" transform="translate(0 -73.85)"/><path class="cls-10" d="M297.91,311.89l38,22.17c1.15.68,2.09.14,2.09-1.2V288.48c0-1.34-.94-1.87-2.09-1.2l-38,22.17A1.29,1.29,0,0,0,297.91,311.89Z" transform="translate(0 -73.85)"/><path class="cls-16" d="M253.8,334.11a6.4,6.4,0,0,0,2.42.24h79.21a6.32,6.32,0,0,0,2.41-.24,8.67,8.67,0,0,0-2.08-1.45L295.82,307l-39.93,25.63A8.84,8.84,0,0,0,253.8,334.11Z" transform="translate(0 -73.85)"/><polyline class="cls-7" points="331.35 210.6 338.05 214.63 337.84 260.26 253.81 260.26 253.81 214.87 260.25 210.8"/><line class="cls-2" x1="234.14" y1="194.72" x2="315.85" y2="194.72"/><line class="cls-2" x1="246.83" y1="200.96" x2="315.85" y2="200.96"/><line class="cls-2" x1="257.15" y1="207.19" x2="315.85" y2="207.19"/><line class="cls-2" x1="272.41" y1="212.78" x2="315.85" y2="212.78"/></svg>